<?xml version="1.0" standalone="no"?>
<!DOCTYPE svg PUBLIC "-//W3C//DTD SVG 20010904//EN"
 "http://www.w3.org/TR/2001/REC-SVG-20010904/DTD/svg10.dtd">
<svg version="1.0" xmlns="http://www.w3.org/2000/svg"
 width="1000.000000pt" height="1000.000000pt" viewBox="0 0 1000.000000 1000.000000"
 preserveAspectRatio="xMidYMid meet">
<metadata>
Created by potrace 1.14, written by Peter Selinger 2001-2017
</metadata>
<g transform="translate(0.000000,1000.000000) scale(0.100000,-0.100000)"
fill="#000000" stroke="none">
<path d="M925 5788 c-87 -8 -113 -13 -195 -40 -356 -116 -592 -416 -592 -753
0 -331 227 -633 563 -748 166 -57 142 -56 1305 -57 1148 0 1102 -2 1160 48 75
65 76 200 2 269 -56 52 -15 50 -1128 50 -569 0 -1061 3 -1093 7 -119 15 -219
61 -305 140 -124 116 -165 263 -113 411 53 149 187 257 376 301 17 4 514 9
1106 10 990 2 1079 4 1109 19 72 37 104 90 103 168 0 48 -6 66 -29 100 -16 22
-47 50 -69 61 -40 21 -47 21 -1085 21 -575 0 -1076 -3 -1115 -7z"/>
<path d="M3534 5787 c-80 -16 -136 -89 -137 -177 -1 -64 29 -118 86 -154 l46
-28 1394 0 c1014 0 1404 3 1429 11 40 13 92 64 107 104 26 67 6 157 -43 200
-61 54 35 51 -1463 52 -760 0 -1399 -3 -1419 -8z"/>
<path d="M7051 5783 c-127 -32 -214 -131 -238 -268 -5 -27 -8 -304 -8 -615 1
-565 1 -565 24 -608 58 -112 200 -134 288 -46 55 55 55 58 55 592 0 270 2 492
5 492 3 0 78 -73 165 -162 520 -531 733 -739 786 -770 126 -72 287 -84 418
-32 114 45 143 70 394 343 52 57 112 122 133 144 22 23 82 89 135 146 54 57
129 139 168 180 39 42 83 88 96 104 14 15 27 27 29 27 2 0 4 -222 4 -493 l1
-492 33 -49 c83 -120 249 -110 311 19 l23 47 -1 581 c0 575 0 583 -22 640 -32
85 -80 138 -165 185 -42 22 -62 27 -130 27 -67 0 -89 -4 -136 -27 -57 -28 -88
-58 -304 -292 -107 -115 -137 -147 -233 -251 -82 -88 -297 -319 -307 -331
-105 -117 -133 -140 -180 -148 -63 -12 -93 10 -275 195 -763 774 -810 820
-864 844 -68 30 -136 36 -205 18z"/>
<path d="M3533 5170 c-46 -10 -79 -35 -110 -82 -27 -41 -27 -41 -28 -237 -1
-200 7 -267 42 -346 46 -106 140 -207 237 -255 126 -62 55 -59 1411 -59 1191
-1 1242 0 1281 18 63 29 97 81 102 155 3 54 0 66 -27 109 -59 92 53 85 -1333
84 -1155 0 -1220 1 -1258 18 -59 27 -83 71 -86 161 l-3 74 1283 0 c1399 0
1323 -3 1376 57 40 45 50 70 50 125 0 86 -54 155 -135 176 -46 12 -2750 13
-2802 2z"/>
</g>
</svg>
