<?xml version="1.0" encoding="utf-8"?>
<!-- Generator: Adobe Illustrator 16.0.0, SVG Export Plug-In . SVG Version: 6.00 Build 0)  -->
<!DOCTYPE svg PUBLIC "-//W3C//DTD SVG 1.1//EN" "http://www.w3.org/Graphics/SVG/1.1/DTD/svg11.dtd">
<svg version="1.1" id="Layer_1" xmlns="http://www.w3.org/2000/svg" xmlns:xlink="http://www.w3.org/1999/xlink" x="0px" y="0px"
	 width="199.904px" height="42.52px" viewBox="0 0 199.904 42.52" enable-background="new 0 0 199.904 42.52" xml:space="preserve">
<g>
	<g>
		<path fill="#026937" d="M54.347,10.999h-3.03V9.784h7.335v1.215h-3.015v9.51h-1.29V10.999z"/>
		<path fill="#026937" d="M59.582,9.155h1.125v5.684c0.585-0.869,1.395-1.274,2.445-1.274c1.56,0,2.52,0.87,2.52,2.385v4.56h-1.17
			v-3.944c0-1.351-0.555-2.01-1.755-2.01c-0.675,0-1.26,0.255-1.635,0.72c-0.39,0.48-0.39,1.035-0.39,1.77v3.465h-1.14V9.155z"/>
		<path fill="#026937" d="M68.236,17.329c0,0.03,0,0.075,0,0.105c0,1.455,0.93,2.4,2.22,2.4c0.9,0,1.62-0.48,2.175-1.455l0.87,0.584
			c-0.675,1.215-1.725,1.83-3.105,1.83c-2.04,0-3.42-1.47-3.42-3.66c0-2.114,1.395-3.584,3.345-3.584
			c1.965,0,3.225,1.334,3.225,3.555c0,0.074,0,0.15,0,0.225H68.236z M70.276,14.555c-1.095,0-1.92,0.704-2.04,1.845h4.08
			C72.241,15.214,71.491,14.555,70.276,14.555z"/>
		<path fill="#026937" d="M79.082,9.784h1.275v10.725h-1.275V9.784z"/>
		<path fill="#026937" d="M82.457,13.805h1.125v1.034c0.584-0.869,1.395-1.274,2.445-1.274c1.559,0,2.52,0.87,2.52,2.385v4.56h-1.17
			v-3.944c0-1.351-0.555-2.01-1.756-2.01c-0.674,0-1.26,0.255-1.635,0.72c-0.389,0.48-0.389,1.035-0.389,1.77v3.465h-1.141V13.805z"
			/>
		<path fill="#026937" d="M89.386,14.749v-0.944h1.23v-2.7h1.17v2.7h1.23v0.944h-1.23v5.76h-1.17v-5.76H89.386z"/>
		<path fill="#026937" d="M94.621,17.329c0,0.03,0,0.075,0,0.105c0,1.455,0.93,2.4,2.221,2.4c0.9,0,1.619-0.48,2.174-1.455
			l0.871,0.584c-0.676,1.215-1.725,1.83-3.105,1.83c-2.039,0-3.42-1.47-3.42-3.66c0-2.114,1.395-3.584,3.346-3.584
			c1.965,0,3.225,1.334,3.225,3.555c0,0.074,0,0.15,0,0.225H94.621z M96.662,14.555c-1.096,0-1.92,0.704-2.041,1.845h4.08
			C98.626,15.214,97.876,14.555,96.662,14.555z"/>
		<path fill="#026937" d="M101.296,13.805h1.02V15.2c0.6-1.141,1.23-1.621,2.25-1.621c0.27,0,0.525,0.045,0.779,0.135l-0.391,1.035
			c-0.254-0.09-0.494-0.135-0.705-0.135c-1.215,0-1.814,0.87-1.814,2.625v3.27h-1.139V13.805z"/>
		<path fill="#026937" d="M106.171,13.805h1.125v1.034c0.584-0.869,1.395-1.274,2.443-1.274c1.561,0,2.521,0.87,2.521,2.385v4.56
			h-1.17v-3.944c0-1.351-0.557-2.01-1.756-2.01c-0.676,0-1.26,0.255-1.635,0.72c-0.391,0.48-0.391,1.035-0.391,1.77v3.465h-1.139
			V13.805z"/>
		<path fill="#026937" d="M120.39,20.509h-1.109v-1.215c-0.541,0.976-1.395,1.5-2.43,1.5c-1.92,0-3.211-1.425-3.211-3.615
			c0-2.249,1.275-3.614,3.15-3.614c1.125,0,1.949,0.511,2.459,1.5v-1.26h1.141V20.509z M117.046,14.704
			c-1.381,0-2.191,0.885-2.191,2.416c0,1.619,0.811,2.534,2.236,2.534c1.35,0,2.189-0.885,2.189-2.43
			C119.281,15.665,118.335,14.704,117.046,14.704z"/>
		<path fill="#026937" d="M121.261,14.749v-0.944h1.229v-2.7h1.17v2.7h1.23v0.944h-1.23v5.76h-1.17v-5.76H121.261z"/>
		<path fill="#026937" d="M126.451,9.739c0.465,0,0.84,0.391,0.84,0.855s-0.375,0.824-0.84,0.824s-0.84-0.359-0.84-0.84
			C125.611,10.114,125.986,9.739,126.451,9.739z M125.88,13.805h1.154v6.704h-1.154V13.805z"/>
		<path fill="#026937" d="M129.599,14.614c0.691-0.689,1.59-1.05,2.58-1.05s1.875,0.375,2.58,1.065
			c0.691,0.675,1.066,1.574,1.066,2.549c0,0.976-0.375,1.861-1.066,2.535c-0.705,0.69-1.604,1.08-2.58,1.08
			c-0.99,0-1.889-0.375-2.58-1.064c-0.705-0.705-1.064-1.575-1.064-2.551C128.535,16.204,128.894,15.305,129.599,14.614z
			 M132.179,19.714c1.336,0,2.416-1.109,2.416-2.535c0-1.424-1.08-2.534-2.416-2.534c-1.35,0-2.43,1.11-2.43,2.534
			C129.75,18.604,130.845,19.714,132.179,19.714z"/>
		<path fill="#026937" d="M137.234,13.805h1.125v1.034c0.586-0.869,1.396-1.274,2.445-1.274c1.561,0,2.52,0.87,2.52,2.385v4.56
			h-1.17v-3.944c0-1.351-0.555-2.01-1.754-2.01c-0.676,0-1.26,0.255-1.635,0.72c-0.391,0.48-0.391,1.035-0.391,1.77v3.465h-1.141
			V13.805z"/>
		<path fill="#026937" d="M151.455,20.509h-1.109v-1.215c-0.541,0.976-1.396,1.5-2.432,1.5c-1.92,0-3.209-1.425-3.209-3.615
			c0-2.249,1.275-3.614,3.15-3.614c1.125,0,1.949,0.511,2.459,1.5v-1.26h1.141V20.509z M148.109,14.704
			c-1.379,0-2.189,0.885-2.189,2.416c0,1.619,0.811,2.534,2.234,2.534c1.352,0,2.191-0.885,2.191-2.43
			C150.345,15.665,149.4,14.704,148.109,14.704z"/>
		<path fill="#026937" d="M153.435,9.155h1.17v11.354h-1.17V9.155z"/>
		<path fill="#026937" d="M166.814,17.495c0,1.965-1.365,3.284-3.436,3.284c-1.693,0-2.879-0.899-3.283-2.489l1.154-0.57
			c0.314,1.305,1.051,1.979,2.129,1.979c1.291,0,2.146-0.825,2.146-1.995c0-0.959-0.555-1.664-1.666-2.145l-1.305-0.555
			c-1.424-0.601-2.115-1.53-2.115-2.836c0-1.499,1.23-2.639,3.016-2.639c1.289,0,2.25,0.555,2.775,1.619l-1.051,0.676
			c-0.465-0.811-1.051-1.23-1.814-1.23c-0.961,0-1.635,0.645-1.635,1.561c0,0.764,0.465,1.305,1.439,1.725l1.529,0.675
			C166.109,15.154,166.814,16.145,166.814,17.495z"/>
		<path fill="#026937" d="M173.16,20.255c-0.615,0.359-1.381,0.539-2.25,0.539c-2.086,0-3.451-1.455-3.451-3.569
			c0-2.19,1.486-3.66,3.496-3.66c0.75,0,1.469,0.165,2.084,0.465v1.229c-0.57-0.375-1.199-0.584-1.859-0.584
			c-1.471,0-2.49,0.99-2.49,2.58c0,1.35,1.006,2.43,2.4,2.43c0.719,0,1.365-0.256,2.07-0.766V20.255z"/>
		<path fill="#026937" d="M174.375,9.155h1.125v5.684c0.584-0.869,1.395-1.274,2.443-1.274c1.561,0,2.521,0.87,2.521,2.385v4.56
			h-1.17v-3.944c0-1.351-0.557-2.01-1.756-2.01c-0.676,0-1.26,0.255-1.635,0.72c-0.391,0.48-0.391,1.035-0.391,1.77v3.465h-1.139
			V9.155z"/>
		<path fill="#026937" d="M182.878,14.614c0.691-0.689,1.59-1.05,2.58-1.05s1.875,0.375,2.58,1.065
			c0.689,0.675,1.064,1.574,1.064,2.549c0,0.976-0.375,1.861-1.064,2.535c-0.705,0.69-1.605,1.08-2.58,1.08
			c-0.99,0-1.889-0.375-2.58-1.064c-0.705-0.705-1.064-1.575-1.064-2.551C181.814,16.204,182.173,15.305,182.878,14.614z
			 M185.458,19.714c1.336,0,2.416-1.109,2.416-2.535c0-1.424-1.08-2.534-2.416-2.534c-1.35,0-2.43,1.11-2.43,2.534
			C183.029,18.604,184.125,19.714,185.458,19.714z"/>
		<path fill="#026937" d="M191.039,14.614c0.689-0.689,1.59-1.05,2.58-1.05s1.875,0.375,2.58,1.065
			c0.689,0.675,1.064,1.574,1.064,2.549c0,0.976-0.375,1.861-1.064,2.535c-0.705,0.69-1.605,1.08-2.58,1.08
			c-0.99,0-1.891-0.375-2.58-1.064c-0.705-0.705-1.064-1.575-1.064-2.551C189.974,16.204,190.333,15.305,191.039,14.614z
			 M193.619,19.714c1.334,0,2.414-1.109,2.414-2.535c0-1.424-1.08-2.534-2.414-2.534c-1.35,0-2.43,1.11-2.43,2.534
			C191.189,18.604,192.283,19.714,193.619,19.714z"/>
		<path fill="#026937" d="M198.734,9.155h1.17v11.354h-1.17V9.155z"/>
		<path fill="#026937" d="M52.312,28.581c0.46-0.459,1.06-0.699,1.719-0.699s1.249,0.25,1.719,0.709
			c0.46,0.45,0.709,1.05,0.709,1.699c0,0.65-0.25,1.24-0.709,1.689c-0.47,0.46-1.069,0.72-1.719,0.72c-0.66,0-1.259-0.25-1.719-0.71
			c-0.47-0.469-0.709-1.049-0.709-1.699C51.602,29.641,51.842,29.041,52.312,28.581z M54.031,31.979c0.889,0,1.609-0.74,1.609-1.689
			s-0.72-1.688-1.609-1.688c-0.9,0-1.619,0.739-1.619,1.688S53.141,31.979,54.031,31.979z"/>
		<path fill="#026937" d="M57.852,28.671h-0.859v-0.629h0.859v-1.289c0-1.34,0.22-1.899,1.289-1.899c0.23,0,0.45,0.03,0.66,0.101
			v0.789c-0.2-0.11-0.399-0.16-0.6-0.16c-0.57,0-0.589,0.41-0.589,1.27v1.189H59.8v0.629h-1.169v3.838h-0.779V28.671z"/>
		<path fill="#026937" d="M66.99,25.983c-0.75,0-1.509,0.319-2.039,0.869c-0.55,0.569-0.819,1.27-0.819,2.109
			c0,0.659,0.16,1.219,0.49,1.688c0.569,0.81,1.439,1.269,2.408,1.269c0.9,0,1.689-0.369,2.339-1.129v1.129
			c-0.709,0.51-1.539,0.78-2.409,0.78c-0.759,0-1.489-0.229-2.109-0.659c-1.039-0.721-1.609-1.799-1.609-3.068
			c0-1.109,0.37-2,1.119-2.729c0.73-0.7,1.609-1.05,2.659-1.05c0.85,0,1.609,0.26,2.349,0.77v1.109
			C68.679,26.323,67.919,25.983,66.99,25.983z"/>
		<path fill="#026937" d="M70.742,24.943h0.75v3.788c0.39-0.58,0.929-0.85,1.629-0.85c1.04,0,1.679,0.58,1.679,1.589v3.038h-0.78
			v-2.628c0-0.899-0.37-1.339-1.169-1.339c-0.45,0-0.839,0.17-1.089,0.479c-0.26,0.32-0.26,0.69-0.26,1.18v2.309h-0.759V24.943z"/>
		<path fill="#026937" d="M76.661,28.581c0.46-0.459,1.059-0.699,1.719-0.699s1.248,0.25,1.719,0.709
			c0.459,0.45,0.709,1.05,0.709,1.699c0,0.65-0.25,1.24-0.709,1.689c-0.471,0.46-1.07,0.72-1.719,0.72
			c-0.66,0-1.259-0.25-1.719-0.71c-0.47-0.469-0.709-1.049-0.709-1.699C75.952,29.641,76.191,29.041,76.661,28.581z M78.38,31.979
			c0.889,0,1.609-0.74,1.609-1.689s-0.721-1.688-1.609-1.688c-0.9,0-1.619,0.739-1.619,1.688S77.49,31.979,78.38,31.979z"/>
		<path fill="#026937" d="M82.72,30.241c0,1.179,0.27,1.729,1.25,1.729c0.979,0,1.238-0.55,1.238-1.729v-2.199h0.781v2.608
			c0,1.349-0.701,2.049-2.039,2.049c-1.32,0-2.029-0.7-2.029-2.049v-2.608h0.799V30.241z"/>
		<path fill="#026937" d="M87.921,30.391c0,0.021,0,0.05,0,0.069c0,0.97,0.619,1.6,1.479,1.6c0.6,0,1.08-0.32,1.449-0.97l0.58,0.39
			c-0.451,0.811-1.15,1.22-2.07,1.22c-1.359,0-2.277-0.979-2.277-2.438c0-1.41,0.93-2.389,2.229-2.389
			c1.309,0,2.148,0.889,2.148,2.369c0,0.049,0,0.1,0,0.149H87.921z M89.279,28.542c-0.729,0-1.279,0.469-1.357,1.229h2.717
			C90.589,28.981,90.089,28.542,89.279,28.542z"/>
		<path fill="#026937" d="M93.031,25.333c0.311,0,0.561,0.26,0.561,0.57c0,0.31-0.25,0.549-0.561,0.549s-0.561-0.239-0.561-0.559
			C92.47,25.583,92.72,25.333,93.031,25.333z M92.65,28.042h0.771v4.467H92.65V28.042z"/>
		<path fill="#026937" d="M95.23,28.671h-0.859v-0.629h0.859v-1.289c0-1.34,0.221-1.899,1.289-1.899c0.23,0,0.451,0.03,0.66,0.101
			v0.789c-0.199-0.11-0.398-0.16-0.6-0.16c-0.568,0-0.59,0.41-0.59,1.27v1.189h1.189v0.629h-1.168v3.838H95.23V28.671z"/>
		<path fill="#026937" d="M102.078,32.509h-0.738V31.7c-0.361,0.649-0.93,0.999-1.619,0.999c-1.279,0-2.139-0.95-2.139-2.409
			c0-1.498,0.848-2.408,2.098-2.408c0.75,0,1.299,0.34,1.639,1v-0.84h0.76V32.509z M99.849,28.642c-0.92,0-1.459,0.59-1.459,1.609
			c0,1.079,0.539,1.688,1.488,1.688c0.9,0,1.461-0.589,1.461-1.619C101.339,29.281,100.708,28.642,99.849,28.642z"/>
		<path fill="#026937" d="M102.912,28.671v-0.629h0.818v-1.799h0.779v1.799h0.82v0.629h-0.82v3.838h-0.779v-3.838H102.912z"/>
		<path fill="#026937" d="M111.339,29.901v0.77h-2.279v-0.77H111.339z"/>
		<path fill="#026937" d="M115.839,25.363h3.77v0.779h-2.92v2.049h2.92v0.79h-2.92v2.738h2.92v0.789h-3.77V25.363z"/>
		<path fill="#026937" d="M120.98,28.042h0.68v0.93c0.4-0.76,0.82-1.08,1.5-1.08c0.18,0,0.35,0.03,0.52,0.09l-0.26,0.689
			c-0.17-0.06-0.33-0.09-0.471-0.09c-0.809,0-1.209,0.58-1.209,1.75v2.178h-0.76V28.042z"/>
		<path fill="#026937" d="M125.24,24.943v3.938c0.34-0.66,0.889-1,1.629-1c1.25,0,2.109,0.91,2.109,2.408
			c0,1.459-0.859,2.409-2.139,2.409c-0.689,0-1.279-0.36-1.629-0.999v0.809h-0.73v-7.565H125.24z M126.708,31.96
			c0.891,0,1.459-0.641,1.459-1.76c0-0.989-0.549-1.559-1.439-1.559c-0.898,0-1.518,0.649-1.518,1.658
			C125.21,31.36,125.789,31.96,126.708,31.96z"/>
		<path fill="#026937" d="M130.621,25.333c0.309,0,0.559,0.26,0.559,0.57c0,0.31-0.25,0.549-0.559,0.549
			c-0.311,0-0.561-0.239-0.561-0.559C130.06,25.583,130.31,25.333,130.621,25.333z M130.24,28.042h0.77v4.467h-0.77V28.042z"/>
		<path fill="#026937" d="M132.66,24.943h0.779v7.565h-0.779V24.943z"/>
	</g>
	<g>
		<path fill="#026937" d="M25.475,18.012c-0.27-0.1-0.928-0.313-1.031,0.113c-0.08,0.324,0.208,0.598,0.279,0.891
			c0.073,0.33-0.055,0.715,0.171,1.014c0.327,0.426,0.829-0.227,1.065-0.441c0.212-0.242,0.115-0.602,0.037-0.865
			C25.909,18.428,25.78,18.125,25.475,18.012"/>
		<path fill="#026937" d="M23.118,18.125c-0.394,0.125-0.863,0.039-1.222,0.244c-0.332,0.191-0.482,0.977-0.066,1.174
			c0.239,0.115,0.383-0.215,0.512-0.352c0.174-0.176,0.383-0.086,0.458,0.137c0.179,0.492-0.031,1.029-0.009,1.541
			c0.004,0.176,0.058,0.369,0.25,0.422c0.156,0.055,0.293-0.008,0.388-0.137c0.509-0.713-0.113-1.734,0.559-2.402
			c0.172-0.205,0.053-0.461-0.14-0.607C23.629,17.977,23.364,18.051,23.118,18.125"/>
		<path fill="#026937" d="M26.84,15.408c-0.228-0.127-0.309,0.074-0.363,0.262c-0.077,0.246-0.263,0.311-0.455,0.469
			c-0.375,0.293-0.236,0.918,0.163,1.123c0.533,0.201,1.201,0.1,1.15-0.58C27.295,16.242,27.275,15.65,26.84,15.408"/>
		<path fill="#026937" d="M23.286,7.408c-0.256-0.246-0.618-0.193-0.904-0.031c-0.149,0.082-0.287,0.174-0.454,0.229
			c-0.124,0.035-0.265,0.088-0.289,0.23c-0.074,0.285,0.255,0.48,0.396,0.682c0.198,0.258,0.349,0.566,0.637,0.746
			c0.447,0.271,1.142,0.229,1.46-0.234c0.102-0.303-0.177-0.547-0.349-0.752C23.576,8.01,23.526,7.654,23.286,7.408"/>
		<path fill="#026937" d="M28.191,18.896c-0.313-0.215-0.739,0.025-0.88,0.344c-0.114,0.275-0.114,0.689,0.195,0.848
			c0.271,0.143,0.66-0.016,0.739-0.314C28.315,19.504,28.49,19.098,28.191,18.896"/>
		<path fill="#026937" d="M20.635,18.922c-0.161,0.162-0.036,0.52-0.021,0.723c0.018,0.297-0.209,0.607-0.335,0.875
			c-0.156,0.311-0.289,0.672-0.132,1.01c0.229,0.488,1.092,0.709,1.379,0.15c0.249-0.818,0.104-1.664-0.287-2.42
			C21.148,19.088,20.881,18.682,20.635,18.922"/>
		<path fill="#026937" d="M20.197,17.838c0.208-0.059,0.575-0.299,0.272-0.502c-0.249-0.178-0.584,0.006-0.864-0.086
			c-0.276-0.102-0.944-0.535-1.106-0.059C18.188,18.086,19.709,17.969,20.197,17.838"/>
		<path fill="#026937" d="M19.225,10.268c-0.367-0.238-0.837-0.164-1.255-0.201c-0.434-0.045-0.763-0.295-1.169-0.414
			c-0.269-0.08-0.543-0.006-0.713,0.219c-0.157,0.205-0.118,0.453,0.088,0.607c0.447,0.33,1.098,0.074,1.542,0.387
			c0.284,0.207-0.004,0.48-0.234,0.566c-0.267,0.102-0.569,0.02-0.849-0.006c-0.467-0.049-1.048,0.234-0.571,0.684
			c0.164,0.154,0.355,0.275,0.536,0.408c0.147,0.109,0.246,0.26,0.36,0.406c0.215,0.273,0.821,0.885,1.051,0.244
			c0.141-0.396-0.188-1.076,0.329-1.283c0.447-0.184,0.957,0.213,1.398,0C20.318,11.59,19.54,10.479,19.225,10.268"/>
		<path fill="#026937" d="M14.45,10.793c-0.272-0.104-0.184-0.326-0.063-0.502c0.132-0.199,0.114-0.387-0.096-0.52
			c-0.214-0.148-0.499-0.178-0.743-0.273c-0.23-0.08-0.418-0.25-0.653-0.334c-0.396-0.154-1.043,0.1-0.906,0.607
			c0.118,0.449,0.638,0.496,0.963,0.734c0.429,0.314,0.325,0.883,0.526,1.309c0.192,0.412,0.625,0.795,1.11,0.68
			c0.437-0.041,0.611-0.521,0.604-0.898c0-0.201-0.028-0.432-0.167-0.596C14.882,10.826,14.649,10.865,14.45,10.793"/>
		<path fill="#026937" d="M19.709,22.561c-0.153-0.061-0.294-0.145-0.468-0.154c-0.293-0.018-0.563,0.109-0.825,0.238
			c0,0,0.053,0.146,0.066,0.205c0.057,0.289,0.208,0.584,0.375,0.824c0.166,0.24,0.414,0.506,0.731,0.465
			c0.297-0.037,0.482-0.285,0.62-0.521c0.15-0.27,0.237-0.576,0.449-0.803c0.074-0.09,0.15-0.15,0.241-0.189
			c0.02,0.004-0.355-0.061-0.566-0.047C20.109,22.584,19.925,22.646,19.709,22.561"/>
		<path fill="#026937" d="M18.58,20.441c-0.008-0.201-0.038-0.402-0.085-0.59c-0.043-0.178-0.061-0.367-0.155-0.523
			c-0.072-0.135-0.245-0.115-0.377-0.135c-0.19-0.035-0.378-0.09-0.575-0.121c-0.428-0.066-0.844-0.25-1.155-0.043
			c-0.064,0.029-0.088,0.33,0.014,0.475c0.098,0.143,0.211,0.275,0.309,0.412c0.217,0.332,0.424,0.66,0.635,0.994
			c0.105,0.162,0.212,0.328,0.31,0.498c0.073,0.137,0.15,0.281,0.273,0.383c0.114,0.088,0.261,0.127,0.408,0.141
			c0.063,0.006,0.135,0.02,0.195-0.016C18.739,21.75,18.58,20.441,18.58,20.441"/>
		<path fill="#026937" d="M19.271,19.012c-0.347,0.363,0.056,0.832,0.167,1.207c0.033,0.109,0.168,0.697,0.369,0.504
			c0.382-0.256,0.244-0.777,0.212-1.156c-0.015-0.221-0.015-0.469-0.192-0.621C19.659,18.818,19.406,18.859,19.271,19.012"/>
		<path fill="#026937" d="M34.702,16.561c-0.146,0.125-0.381,0.041-0.556,0.014c-0.279-0.045-0.643-0.131-0.691-0.467
			c-0.052-0.309,0.301-0.557,0.587-0.537c0.19,0.014,0.283,0.174,0.424,0.275c0.102,0.074,0.294,0.09,0.294,0.256
			C34.76,16.258,34.853,16.443,34.702,16.561 M9.168,17.732c0.408-0.051,0.386-0.559,0.604-0.813
			c0.271-0.324,0.528,0.273,0.769,0.342c0.169,0.037,0.396,0.02,0.349,0.258c-0.044,0.26-0.267,0.412-0.503,0.477
			C9.977,18.115,9.449,18.104,9.168,17.732 M37.525,21.801c-0.842,0.273-1.893-0.051-2.601-0.529
			c-0.302-0.211-0.571-0.477-0.761-0.791c-0.116-0.193-0.219-0.486-0.462-0.553c-0.446-0.125-0.115,0.672-0.043,0.83
			c0.124,0.281,0.366,0.875-0.03,1.057c-0.495,0.219-0.664-0.424-0.783-0.756c-0.488-1.377-1.694,0.674-2.117,1.068
			c-0.465,0.426-1.079,0.537-1.617,0.162c-0.501-0.371-0.796-0.943-1.291-1.322c-1.103-0.848-5.123,1.064-4.482,5.172
			c0.066,0.438,0.114,0.801,0.15,1.115c0.383,1.596,1.137,2.541,1.541,2.865c0.585,0.479,1.931,0.367,1.865,0.939
			c-0.023,0.223-0.282,0.291-0.412,0.34c-0.13,0.047-0.554,0.205-0.908,0.035c-0.6-0.498-0.995-0.029-1.209-0.221
			c-0.474-0.428-0.871-1.209-1.272-2.139c0.045,0.32-0.968-2.742-1.077-2.951c-0.212-0.391-0.376-0.875-0.673-1.201
			c-0.257-0.287-0.762-0.408-1.122-0.246c-0.439,0.205-0.335,0.838-0.233,1.207c0.168,0.691,0.484,1.336,0.749,1.996
			c0.292,0.727,0.409,1.49,0.646,2.227c0.097,0.285,0.563,1.586-0.233,1.35c-0.335-0.092-0.638-0.408-0.827-0.691
			c-0.206-0.311-0.213-0.645-0.182-1.006c0.015-0.316,0.119-1.121-0.4-1.104c-0.411,0.006-0.909,0.531-0.992,0.924
			c-0.114,0.502,0.495,0.809,0.568,1.277c0.047,0.307-0.21,0.588-0.514,0.627c-0.337,0.045-0.645-0.139-0.94-0.27
			c-0.1,0.289-0.421,0.654-0.763,0.502c-0.268-0.125-0.383-0.422-0.665-0.537c-0.51-0.193-0.958,0.85-1.594,0.139
			c-0.45-0.51,1.118-0.652,1.784-1.014c0.618-0.32,1.093-0.854,1.471-1.424c0.403-0.609,0.451-1.354,0.414-2.066
			c-0.041-0.832-0.128-1.654-0.188-2.49c-0.038-0.529-0.038-1.156-0.415-1.57c-0.281,0.033-0.568,0.033-0.85,0.082
			c-0.325,0.047-0.645,0.137-0.967,0.207c-0.241,0.055-0.579,0.113-0.795-0.049c-0.223-0.178,0.031-0.404,0.195-0.51
			c0.245-0.152,0.546-0.221,0.741-0.43c0.237-0.246,0.245-0.592,0.142-0.898c-0.22-0.635-0.75-1.16-1.317-1.508
			c-0.453-0.271-1.146-0.494-1.558-0.041c-0.425,0.451-0.197,1.174,0.217,1.557c0.233,0.229,0.551,0.375,0.813,0.588
			c0.193,0.16,0.529,0.506,0.108,0.623c-0.318,0.096-0.602-0.197-0.846-0.352c-0.306-0.18-0.661-0.275-1.01-0.318
			c-0.59-0.061-1.254,0.098-1.563,0.627c-0.095,0.152-0.17,0.344-0.148,0.521c0.019,0.127,0.109,0.314,0.017,0.434
			c-0.077,0.084-0.251,0.088-0.349,0.129c-0.26,0.102-0.681,0.236-0.785,0.27c-0.337,0.1-0.573,0.27-0.853,0.467
			c-0.491,0.35-1.054,0.451-1.349-0.18c-0.204-0.434-0.284-1.307-0.937-1.277c-0.35,0.008-0.619,0.285-0.964,0.299
			c-0.286,0.01-0.551-0.139-0.762-0.299c-0.386-0.311-0.794-0.852-0.71-1.379c0.11-0.68,1.013-0.445,1.412-0.213
			c0.629,0.346,1.111,0.893,1.663,1.346c0.425,0.352,0.911,0.652,1.468,0.746c0.331,0.055,1.07-0.064,0.904-0.568
			c-0.12-0.34-0.538-0.498-0.648-0.844c-0.182-0.59,0.663-0.545,0.989-0.482c0.353,0.074,1.121,0.23,1.146-0.326
			c0.028-0.6-0.602-0.9-1.115-0.979c-0.592-0.092-1.398,0.105-1.803-0.471c-0.43-0.613,0.611-0.934,1.044-0.914
			c0.341,0.021,0.668,0.15,0.953,0.334c0.281,0.17,0.498,0.402,0.771,0.58c0.252,0.164,0.589,0.287,0.862,0.1
			c0.202-0.139,0.263-0.398,0.175-0.617c-0.163-0.428-0.694-0.59-0.869-1.012c-0.112-0.268,0.006-0.574,0.266-0.695
			c0.29-0.135,0.604-0.006,0.829,0.188c0.468,0.406,0.707,1.055,1.31,1.316c0.265,0.117,0.679,0.17,0.86-0.121
			c0.155-0.236-0.031-0.477-0.25-0.576c-0.333-0.176-0.946-0.279-0.93-0.764c0.015-0.607,0.586-0.607,1.014-0.383
			c0.255,0.143,1.328,1.031,1.595,0.594c0.119-0.211-0.08-0.508-0.141-0.703c-0.069-0.207-0.062-0.592,0.26-0.563
			c0.429,0.039,0.545,1.012,0.96,0.883c0.158-0.051,0.218-0.244,0.363-0.32c0.138-0.07,0.299-0.074,0.446-0.107
			c0.346-0.061,0.542-0.324,0.845-0.455c0.313-0.148,0.623-0.059,0.95-0.1c0.326-0.031,0.438-0.268,0.667-0.443
			c0.292-0.232,0.558,0.006,0.832,0.115c0.255,0.104,0.484-0.008,0.538-0.275c0.053-0.244-0.028-0.5,0.058-0.748
			c0.097-0.305,0.187-0.529-0.037-0.803c-0.202-0.244-0.469-0.42-0.657-0.674c-0.166-0.223-0.33-0.469-0.613-0.535
			c-0.355-0.084-1.024,0.025-1.012,0.5c0.009,0.322,0.302,0.539,0.578,0.66c0.114,0.049,0.253,0.049,0.334,0.156
			c0.041,0.057,0.128,0.105,0.092,0.191c-0.121,0.352-0.508,0.576-0.877,0.541c-0.164-0.021-0.342-0.154-0.512-0.08
			c-0.166,0.072-0.126,0.256-0.211,0.387c-0.184,0.287-0.581-0.047-0.719-0.215c-0.112-0.139-0.137-0.336-0.268-0.463
			c-0.042-0.043-0.302-0.092-0.373-0.207c-0.324-0.303-0.653-0.221-1.087-0.188c-0.331,0.021-0.854,0.15-0.75,0.582
			c0.097,0.379,0.462,0.787,0.028,1.121c-0.337,0.273-0.784,0.229-1.124-0.012c-0.277-0.201-0.561-0.486-0.938-0.43
			c-0.319,0.045-0.072,0.346,0.016,0.482c0.227,0.363-0.201,0.436-0.474,0.436c-0.405,0-0.812-0.078-1.193-0.234
			c-0.307-0.127-0.607-0.285-0.937-0.363c-0.34-0.078-0.644-0.02-0.979,0.061c-0.408,0.102-0.766,0.127-1.155-0.064
			c-0.317-0.16-0.592-0.385-0.917-0.531c-0.307-0.133-0.722-0.182-0.968-0.42c-0.191-0.18-0.223-0.488-0.113-0.723
			c0.151-0.336,0.552-0.248,0.762-0.506c0.205-0.256,0.422-0.354,0.755-0.289c0.303,0.064,0.524,0.232,0.624,0.527
			c0.08,0.258,0.08,0.527,0.234,0.766c0.217,0.336,0.588,0.322,0.937,0.256c0.365-0.066,0.638,0.027,0.98,0.141
			c0.297,0.09,0.609,0.1,0.858-0.111c0.159-0.131,0.243-0.373,0.139-0.566c-0.179-0.336-0.729-0.391-1.069-0.447
			c-0.619-0.1-1.042-0.545-1.64-0.703c-0.378-0.102-1.231-0.146-1.043-0.746c0.21-0.633,1.179-0.656,1.582-0.238
			c0.208,0.211,0.335,0.578,0.65,0.646c0.274,0.068,0.555-0.051,0.834,0.014c0.21,0.045,1.147,0.65,1.257,0.188
			c0.068-0.314-0.245-0.523-0.4-0.75c-0.183-0.254-0.207-0.559-0.22-0.861c-0.016-0.297-0.067-0.594-0.32-0.783
			c-0.266-0.197-0.614-0.236-0.88-0.439c-0.487-0.396-0.516-1.164-0.137-1.645c0.449-0.572,1.146-0.463,1.718-0.15
			c0.287,0.162,0.619,0.416,0.975,0.373c0.278-0.039,0.501-0.305,0.461-0.576c-0.085-0.533-0.922-0.336-1.278-0.482
			c-0.313-0.141-0.36-0.498-0.147-0.752c0.198-0.221,0.51-0.336,0.804-0.367c0.546-0.064,1.223,0.076,1.331,0.695
			c0.062,0.336-0.132,1.377,0.383,1.432c0.298,0.029,0.499-0.318,0.797-0.303c0.247,0.018,0.382,0.289,0.528,0.455
			c0.543,0.619,1.045-0.334,1.569-0.414c0.696-0.104,1.046,0.799,1.7,0.883c0.292,0.037,0.685-0.092,0.916,0.156
			c0.174,0.168,0.154,0.457,0.138,0.68c-0.028,0.334-0.028,0.643,0.135,0.939c0.139,0.268,0.364,0.498,0.391,0.811
			c0.019,0.271-0.14,0.602,0.072,0.834c0.199,0.211,0.584,0.215,0.847,0.123c0.323-0.123,0.479-0.404,0.468-0.738
			c-0.002-0.219-0.105-0.463-0.049-0.68c0.085-0.285,0.464-0.172,0.636-0.043c0.211,0.146,0.43,0.334,0.702,0.225
			c0.494-0.203,0.6-0.998,0.203-1.336c-0.483-0.422-1.022,0.117-1.372,0.439c-0.319,0.303-0.993,0.652-1.374,0.221
			c-0.429-0.494,0.626-0.699,0.641-1.127c0.015-0.482-0.773-0.652-1.006-0.988c-0.181-0.258-0.11-0.555-0.19-0.838
			c-0.066-0.293-0.307-0.379-0.57-0.439c-0.378-0.094-0.607-0.252-0.887-0.518c-0.22-0.215-0.464-0.322-0.732-0.461
			c-0.237-0.127-0.429-0.346-0.331-0.627c0.098-0.271,0.383-0.381,0.641-0.295c0.433,0.146,0.848,0.82,1.359,0.596
			c0.24-0.111,0.37-0.422,0.32-0.672c-0.044-0.254-0.269-0.4-0.498-0.451c-0.255-0.053-0.548-0.064-0.687-0.311
			c-0.123-0.219-0.107-0.555,0.135-0.699c0.255-0.146,0.638-0.232,0.927-0.205c0.349,0.053,0.618,0.273,0.914,0.418
			c0.346,0.164,0.714,0.201,1.078,0.107c0.292-0.076,0.651-0.191,0.946-0.057c0.277,0.129,0.277,0.471,0.12,0.697
			c-0.162,0.234-0.435,0.193-0.657,0.07c-0.299-0.174-0.485-0.141-0.816-0.1c-0.213,0.035-0.696,0.086-0.742,0.359
			c-0.044,0.25,0.345,0.42,0.466,0.6c0.16,0.223,0.086,0.502,0.211,0.732c0.197,0.346,0.737-0.213,0.892-0.354
			c0.271-0.26,0.921-0.686,0.979-0.02c0.027,0.361,0.015,0.568,0.38,0.736c0.27,0.131,0.438,0.443,0.539,0.711
			c0.167,0.43-0.144,1.102,0.208,1.451c0.432,0.428,0.794-0.252,1.083-0.477c0.187-0.143,0.508-0.154,0.667,0.047
			c0.188,0.254-0.088,0.48-0.273,0.621c-0.117,0.086-0.296,0.236-0.203,0.396c0.06,0.115,0.205,0.15,0.328,0.115
			c0.264-0.074,0.506-0.309,0.755-0.086c0.105,0.102,0.269,0.309,0.333,0.355c0.263,0.215,0.585,0.248,0.866,0.084
			c0.227-0.141,0.329-0.436,0.086-0.615c-0.183-0.15-0.443-0.164-0.666-0.24c-0.377-0.129-0.848-0.416-0.651-0.881
			c0.178-0.432,0.651-0.367,0.979-0.146c0.411,0.268,0.568,0.771,0.951,1.064c0.279,0.217,0.654,0.229,0.997,0.156
			c0.396-0.08,0.536-0.357,0.251-0.68c-0.192-0.209-0.395-0.377-0.409-0.688c-0.004-0.254,0.112-0.508,0.279-0.699
			c0.254-0.281,1.39-0.902,1.462-0.156c0.052,0.52-0.636,1.014-0.367,1.531c0.321,0.619,1.201,0.256,1.728,0.432
			c0.235,0.078,0.539,0.254,0.561,0.529c0.025,0.281-0.248,0.5-0.49,0.557c-0.57,0.152-1.154-0.098-1.472,0.539
			c-0.134,0.256-0.293,0.547-0.629,0.357c-0.254-0.139-0.413-0.418-0.705-0.492c-0.311-0.078-0.534,0.164-0.629,0.428
			c-0.07,0.197-0.168,0.518-0.442,0.473c-0.266-0.049-0.427-0.367-0.589-0.547c-0.194-0.219-0.471-0.418-0.784-0.391
			c-0.737,0.07-0.463,0.879-0.217,1.277c0.228,0.377,0.646,1.178-0.062,1.354c-0.758,0.18-0.865-0.947-0.934-1.422
			c-0.084-0.531-0.387-1.186-1.057-1.027c-0.284,0.064-0.542,0.314-0.484,0.623c0.052,0.318,0.343,0.553,0.551,0.787
			c0.31,0.346,0.624,0.832,0.69,1.305c0.075,0.512-0.434,0.787-0.891,0.635c-0.346-0.115-0.351-0.428-0.392-0.732
			c-0.031-0.199-0.156-0.465-0.398-0.463c-0.383,0.012-0.675,0.529-0.923,0.764c-0.28,0.262-0.734,0.225-1.073,0.379
			c-0.176,0.078-0.317,0.219-0.313,0.428c0,0.275,0.206,0.422,0.454,0.506c0.337,0.113,0.572,0.262,0.852,0.48
			c0.271,0.213,0.452-0.008,0.554-0.258c0.114-0.268,0.267-0.443,0.569-0.5c0.343-0.066,0.689-0.053,1.037-0.121
			c0.372-0.072,0.735-0.201,1.113-0.072c0.296,0.109,0.545,0.322,0.85,0.398c0.802,0.215,0.782-0.713,0.962-1.219
			c0.128-0.375,0.243-0.74,0.354-1.115c0.091-0.277,0.243-0.541,0.497-0.695c0.576-0.35,1.143,0.23,1.101,0.805
			c-0.044,0.492-0.429,0.906-0.397,1.404c0.016,0.24,0.198,0.436,0.445,0.459c0.218,0.023,0.397-0.135,0.529-0.293
			c0.348-0.424,0.521-0.906,1.024-1.197c0.492-0.289,1.114-0.297,1.642-0.074c0.441,0.18,0.861,0.68,0.566,1.164
			c-0.229,0.387-0.803,0.459-1.208,0.424c-0.489-0.031-1.087-0.234-1.535,0.051c-0.656,0.428-0.167,1.125,0.253,1.504
			c0.155,0.139,1.214,0.879,0.671,1.07c-0.253,0.088-0.472-0.029-0.632-0.215c-0.191-0.219-0.347-0.322-0.611-0.43
			c-0.331-0.133-0.308-0.389-0.354-0.691c-0.042-0.279-0.234-0.471-0.478-0.59c-0.463-0.225-1.104-0.232-1.58-0.023
			c-0.303,0.141-0.365,0.467-0.164,0.73c0.184,0.242,0.474,0.385,0.726,0.555c0.305,0.201,0.622,0.381,0.991,0.443
			c0.294,0.063,0.632,0.078,0.856,0.297c0.182,0.164,0.311,0.488,0.032,0.643c-0.285,0.156-0.578-0.107-0.763-0.301
			c-0.207-0.207-0.474-0.391-0.762-0.191c-0.201,0.137-0.35,0.457-0.622,0.459c-0.275,0-0.403-0.336-0.516-0.527
			c-0.149-0.23-0.39-0.342-0.666-0.289c-0.51,0.111-0.609,0.713-0.325,1.088c0.432,0.566,1.208,0.348,1.819,0.523
			c0.173,0.061,1.249,0.322,0.727,0.623c-0.26,0.15-0.576,0.07-0.862,0.121c-0.308,0.043-0.491,0.285-0.531,0.574
			c-0.077,0.457,0.079,1.053,0.415,1.367c0.184,0.17,0.446,0.221,0.669,0.096c0.293-0.174,0.19-0.459-0.01-0.662
			c-0.188-0.189-0.433-0.355-0.451-0.65c-0.024-0.33,0.342-0.246,0.531-0.139c0.263,0.15,0.525,0.484,0.86,0.477
			c0.277-0.012,0.549-0.258,0.594-0.535c0.097-0.531-0.79-1.201-0.393-1.697c0.433-0.523,0.814,0.404,1.255,0.354
			c0.276-0.025,0.319-0.395,0.441-0.584c0.165-0.254,0.525-0.266,0.788-0.174c0.58,0.199,0.594,0.83,0.675,1.342
			c0.09,0.572,0.339,1.209,0.891,1.492c0.676,0.332,1.455,0.063,2.085-0.25c0.312-0.123,0.598,0.109,0.624,0.424
			C38.181,21.457,37.855,21.693,37.525,21.801 M35.91,23.385c0,0-0.612,0.51-1.014,0.598c-0.313,0.064-1.031,0.021-1.343-0.16
			c-0.313-0.176-0.391-0.449-0.29-0.725c0.132-0.381,0.533-0.65,0.929-0.736c0.205-0.055,0.423-0.041,0.624,0.037
			c0.198,0.08,0.335,0.24,0.521,0.334c0.393,0.199,0.652-0.172,0.947-0.359c0.138-0.088,0.615-0.178,0.553,0.125
			C36.748,22.893,36.202,23.166,35.91,23.385 M28.503,37.178c-0.068,0.188-0.171,0.361-0.306,0.512
			c-0.138,0.148-0.306,0.271-0.503,0.361c-0.197,0.088-0.428,0.137-0.687,0.137c-0.272,0-0.52-0.055-0.733-0.16
			c-0.212-0.105-0.39-0.246-0.536-0.424c-0.146-0.182-0.256-0.389-0.326-0.619c-0.072-0.232-0.109-0.48-0.109-0.744
			c0-0.449,0.093-0.85,0.273-1.186c0.183-0.334,0.409-0.623,0.676-0.861c0.266-0.234,0.55-0.426,0.848-0.564
			c0.294-0.143,0.564-0.248,0.803-0.314l0.049-0.012l0.124,0.346l-0.046,0.021c-0.175,0.078-0.345,0.17-0.504,0.271
			c-0.162,0.104-0.312,0.229-0.443,0.363c-0.134,0.137-0.249,0.301-0.343,0.48c-0.076,0.146-0.136,0.318-0.179,0.504
			c0.052-0.025,0.112-0.047,0.179-0.068c0.122-0.041,0.258-0.061,0.414-0.061c0.238,0,0.452,0.037,0.633,0.109
			s0.335,0.172,0.456,0.301c0.124,0.125,0.218,0.281,0.276,0.455c0.059,0.172,0.09,0.365,0.09,0.574
			C28.608,36.797,28.572,36.994,28.503,37.178 M24.7,37.307c-0.079,0.17-0.197,0.324-0.348,0.455
			c-0.148,0.131-0.327,0.232-0.535,0.307c-0.205,0.078-0.436,0.119-0.69,0.119c-0.225,0-0.435-0.031-0.627-0.084
			c-0.189-0.053-0.358-0.135-0.5-0.24c-0.141-0.104-0.254-0.236-0.333-0.379c-0.08-0.15-0.122-0.318-0.122-0.5
			c0-0.156,0.026-0.295,0.076-0.416c0.046-0.125,0.112-0.234,0.196-0.334c0.085-0.098,0.183-0.184,0.304-0.262
			c0.088-0.066,0.186-0.123,0.287-0.18c-0.226-0.148-0.4-0.313-0.519-0.486c-0.132-0.193-0.198-0.428-0.198-0.701
			c0-0.18,0.044-0.35,0.132-0.506c0.085-0.158,0.201-0.293,0.34-0.412c0.141-0.115,0.306-0.207,0.483-0.273
			c0.353-0.129,0.718-0.121,1.058-0.045c0.169,0.041,0.317,0.102,0.449,0.186c0.133,0.084,0.241,0.195,0.32,0.328
			c0.082,0.135,0.124,0.299,0.124,0.486c0,0.162-0.037,0.307-0.108,0.43c-0.069,0.123-0.154,0.225-0.248,0.313
			c-0.095,0.086-0.193,0.16-0.294,0.217c-0.056,0.029-0.104,0.053-0.144,0.072c0.122,0.066,0.244,0.141,0.36,0.217
			c0.126,0.08,0.239,0.176,0.339,0.283c0.099,0.109,0.177,0.234,0.233,0.371c0.06,0.143,0.089,0.303,0.089,0.486
			C24.825,36.951,24.782,37.135,24.7,37.307 M20.985,37.307c-0.084,0.17-0.2,0.324-0.349,0.455c-0.15,0.131-0.328,0.232-0.536,0.307
			c-0.206,0.078-0.438,0.119-0.69,0.119c-0.226,0-0.436-0.031-0.625-0.084c-0.192-0.053-0.359-0.135-0.503-0.24
			c-0.143-0.104-0.253-0.236-0.332-0.379c-0.079-0.15-0.119-0.318-0.119-0.5c0-0.152,0.023-0.293,0.071-0.416
			c0.049-0.127,0.116-0.236,0.2-0.334c0.081-0.098,0.18-0.184,0.3-0.262c0.09-0.066,0.188-0.123,0.289-0.18
			c-0.227-0.148-0.4-0.313-0.519-0.486c-0.134-0.193-0.199-0.428-0.199-0.701c0-0.18,0.045-0.35,0.133-0.506
			c0.085-0.158,0.199-0.293,0.339-0.412c0.142-0.115,0.303-0.207,0.484-0.273c0.354-0.129,0.722-0.121,1.059-0.045
			c0.167,0.041,0.318,0.102,0.449,0.186s0.239,0.193,0.321,0.328c0.079,0.135,0.12,0.299,0.12,0.486c0,0.162-0.035,0.307-0.106,0.43
			c-0.069,0.121-0.152,0.225-0.25,0.313c-0.096,0.088-0.191,0.16-0.293,0.217c-0.047,0.023-0.097,0.051-0.143,0.072
			c0.122,0.066,0.242,0.141,0.359,0.217c0.126,0.082,0.242,0.176,0.339,0.283c0.102,0.109,0.178,0.234,0.235,0.371
			c0.059,0.143,0.089,0.303,0.089,0.486C21.109,36.951,21.065,37.135,20.985,37.307 M17.345,38.066h-2.624v-0.428l0.549-0.033
			c0.104-0.006,0.176-0.031,0.213-0.068c0.023-0.025,0.052-0.092,0.052-0.25v-2.508c0-0.131-0.038-0.223-0.112-0.273
			c-0.084-0.057-0.211-0.096-0.374-0.105l-0.332-0.025v-0.369l0.044-0.008c0.088-0.014,0.188-0.039,0.303-0.068
			c0.117-0.031,0.239-0.072,0.361-0.125c0.124-0.053,0.244-0.115,0.354-0.182c0.111-0.066,0.205-0.143,0.28-0.227l0.02-0.02h0.46
			v3.91c0,0.158,0.027,0.225,0.053,0.25c0.036,0.037,0.107,0.063,0.21,0.068l0.544,0.033V38.066z M6.158,19.938
			c0.081-0.184,0.333-0.203,0.501-0.145c0.311,0.104,0.626,0.201,0.934,0.318c0.193,0.074,0.438,0.057,0.583,0.23
			c0.15,0.18,0.092,0.441-0.019,0.631c-0.238,0.412-0.772,0.27-1.104,0.061c-0.229-0.135-0.424-0.338-0.624-0.525
			C6.271,20.369,6.052,20.168,6.158,19.938 M6.611,17.838c0.205-0.201,0.387-0.424,0.567-0.646c0.132-0.174,0.325-0.457,0.595-0.371
			c0.212,0.076,0.258,0.35,0.235,0.545c-0.026,0.27-0.23,0.473-0.351,0.711c-0.074,0.156,0.104,0.398-0.099,0.518
			c-0.274,0.146-0.6,0.037-0.896,0.049c-0.152,0.01-0.397-0.012-0.429-0.199C6.197,18.195,6.459,17.994,6.611,17.838 M14.319,5.002
			c0.327-0.377,0.896-0.285,1.307-0.098c0.528,0.25,0.929,0.693,1.37,1.07c0.472,0.408,0.976,0.787,1.368,1.289
			c0.193,0.094,0.223,0.373,0.098,0.535c-0.158,0.209-0.436,0.025-0.609-0.061c-0.537-0.279-1.174-0.01-1.721-0.258
			c-0.203-0.102-0.413-0.379-0.201-0.57c0.144-0.129,0.189-0.377-0.03-0.439c-0.503-0.158-1.112,0.156-1.535-0.258
			C14.057,5.896,14.03,5.34,14.319,5.002 M24.299,4.563c0.158-0.781,1.304-0.867,1.864-0.492c0.392,0.25,0.296,0.76,0.271,1.15
			c-0.022,0.486,0.303,0.877,0.51,1.291c0.074,0.363-0.023,0.846-0.413,1.002c-0.39,0.154-0.64-0.166-0.795-0.477
			C25.5,6.59,25.261,6.176,24.943,5.779C24.664,5.441,24.199,5.059,24.299,4.563 M27.612,5.279c0.133-0.203,0.404-0.191,0.619-0.191
			c0.576,0.006,1.142,0.246,1.522,0.674c0.167,0.193,0.411,0.469,0.27,0.746c-0.11,0.213-0.392,0.209-0.602,0.182
			c-0.595-0.047-1.136-0.354-1.569-0.76C27.685,5.768,27.447,5.52,27.612,5.279 M34.97,17.855c0.133-0.17,0.378-0.156,0.574-0.143
			c0.444,0.035,0.898,0.242,1.144,0.629c0.209,0.332-0.236,0.715-0.569,0.629c-0.2-0.07-0.268-0.277-0.418-0.404
			c-0.167-0.143-0.411-0.123-0.593-0.242C34.961,18.227,34.853,18.012,34.97,17.855 M37.576,19.023
			c0.179,0.172,0.322,0.518,0.068,0.682c-0.222,0.146-0.561,0.01-0.69-0.203C36.745,19.158,37.294,18.674,37.576,19.023 M21.26,0
			C9.518,0,0,9.516,0,21.258c0,11.736,9.518,21.26,21.26,21.26c11.743,0,21.26-9.523,21.26-21.26C42.52,9.516,33.003,0,21.26,0"/>
		<path fill="#026937" d="M26.897,35.656c-0.082,0-0.156,0.014-0.227,0.043c-0.065,0.023-0.119,0.051-0.171,0.09
			c-0.017,0.09-0.029,0.186-0.035,0.283c-0.011,0.107-0.015,0.209-0.015,0.318c0,0.189,0.009,0.375,0.026,0.541
			c0.017,0.162,0.048,0.313,0.091,0.438c0.04,0.125,0.1,0.221,0.172,0.287c0.068,0.066,0.159,0.1,0.269,0.1
			c0.161,0,0.282-0.074,0.363-0.225c0.087-0.164,0.132-0.422,0.132-0.77c0-0.334-0.048-0.609-0.14-0.816
			C27.275,35.75,27.123,35.656,26.897,35.656"/>
		<path fill="#026937" d="M22.74,34.75c0.056,0.055,0.121,0.107,0.201,0.156c0.075,0.053,0.156,0.1,0.256,0.152l0.215,0.119
			c0.082-0.074,0.154-0.166,0.217-0.287c0.066-0.127,0.103-0.293,0.103-0.479c0-0.23-0.05-0.398-0.153-0.5
			c-0.104-0.098-0.236-0.146-0.396-0.146c-0.181,0-0.33,0.045-0.446,0.139c-0.118,0.096-0.173,0.229-0.173,0.404
			c0,0.098,0.015,0.18,0.046,0.248C22.642,34.627,22.685,34.691,22.74,34.75"/>
		<path fill="#026937" d="M19.98,36.535c-0.073-0.061-0.152-0.117-0.242-0.168c-0.095-0.051-0.192-0.104-0.294-0.16l-0.361-0.186
			c-0.138,0.102-0.236,0.225-0.299,0.375c-0.069,0.162-0.104,0.338-0.104,0.535c0,0.26,0.07,0.451,0.217,0.586
			c0.145,0.135,0.327,0.203,0.547,0.203c0.217,0,0.401-0.057,0.55-0.166c0.143-0.109,0.216-0.287,0.216-0.531
			c0-0.102-0.021-0.195-0.063-0.277C20.104,36.668,20.047,36.596,19.98,36.535"/>
		<path fill="#026937" d="M23.695,36.535c-0.07-0.061-0.152-0.117-0.24-0.168c-0.095-0.051-0.192-0.104-0.292-0.16L22.8,36.021
			c-0.137,0.102-0.238,0.227-0.302,0.375c-0.066,0.162-0.101,0.338-0.101,0.535c0,0.26,0.071,0.451,0.215,0.586
			c0.146,0.135,0.329,0.203,0.549,0.203c0.219,0,0.401-0.057,0.548-0.166c0.145-0.109,0.217-0.287,0.217-0.531
			c0-0.102-0.021-0.195-0.063-0.277C23.821,36.668,23.765,36.596,23.695,36.535"/>
		<path fill="#026937" d="M19.023,34.75c0.058,0.057,0.122,0.109,0.201,0.156c0.074,0.053,0.157,0.1,0.253,0.152l0.216,0.119
			c0.083-0.074,0.155-0.166,0.219-0.287c0.068-0.129,0.104-0.293,0.104-0.479c0-0.23-0.052-0.398-0.154-0.5
			c-0.105-0.102-0.236-0.146-0.396-0.146c-0.178,0-0.33,0.045-0.449,0.139c-0.113,0.096-0.171,0.229-0.171,0.404
			c0,0.098,0.015,0.178,0.046,0.248C18.924,34.627,18.97,34.693,19.023,34.75"/>
	</g>
</g>
</svg>
